<svg width="14" height="16" viewBox="0 0 14 16" fill="none" xmlns="http://www.w3.org/2000/svg">
<path d="M6.82437 7.79928C7.85862 7.79928 8.85051 7.38843 9.58183 6.6571C10.3132 5.92578 10.724 4.93389 10.724 3.89964C10.724 2.86539 10.3132 1.8735 9.58183 1.14218C8.85051 0.410854 7.85862 0 6.82437 0C5.79012 0 4.79823 0.410854 4.06691 1.14218C3.33558 1.8735 2.92473 2.86539 2.92473 3.89964C2.92473 4.93389 3.33558 5.92578 4.06691 6.6571C4.79823 7.38843 5.79012 7.79928 6.82437 7.79928ZM5.43208 9.26164C2.43118 9.26164 0 11.6928 0 14.6937C0 15.1934 0.405197 15.5986 0.904838 15.5986H12.7439C13.2435 15.5986 13.6487 15.1934 13.6487 14.6937C13.6487 11.6928 11.2176 9.26164 8.21666 9.26164H5.43208Z" fill="#2563EB"/>
</svg>
