<svg width="14" height="16" viewBox="0 0 14 16" fill="none" xmlns="http://www.w3.org/2000/svg">
<path d="M6.82437 7.79928C5.79012 7.79928 4.79823 7.38843 4.06691 6.6571C3.33558 5.92578 2.92473 4.93389 2.92473 3.89964C2.92473 2.86539 3.33558 1.8735 4.06691 1.14218C4.79823 0.410854 5.79012 0 6.82437 0C7.85862 0 8.85051 0.410854 9.58183 1.14218C10.3132 1.8735 10.724 2.86539 10.724 3.89964C10.724 4.93389 10.3132 5.92578 9.58183 6.6571C8.85051 7.38843 7.85862 7.79928 6.82437 7.79928ZM6.37043 10.9434L5.80376 9.99892C5.60878 9.67293 5.84337 9.26164 6.22114 9.26164H6.82437H7.42455C7.80233 9.26164 8.03691 9.67598 7.84193 9.99892L7.27526 10.9434L8.29283 14.7181L9.3896 10.2426C9.45053 9.99587 9.68817 9.8344 9.93494 9.89838C12.0706 10.4346 13.6487 12.3661 13.6487 14.6633C13.6487 15.1812 13.2283 15.5986 12.7134 15.5986H8.69802C8.63405 15.5986 8.57616 15.5864 8.52132 15.565L8.53046 15.5986H5.11828L5.12742 15.565C5.07258 15.5864 5.01165 15.5986 4.95071 15.5986H0.935304C0.42043 15.5986 0 15.1781 0 14.6633C0 12.3631 1.58118 10.4315 3.7138 9.89838C3.96057 9.83745 4.19821 9.99892 4.25914 10.2426L5.35591 14.7181L6.37347 10.9434H6.37043Z" fill="#EA580C"/>
</svg>
