<svg width="31" height="34" viewBox="0 0 31 34" fill="none" xmlns="http://www.w3.org/2000/svg">
<path opacity="0.999" fill-rule="evenodd" clip-rule="evenodd" d="M6.0573 0C11.3776 0 16.698 0 22.0184 0C22.0069 2.25708 22.0184 4.51405 22.0528 6.77091C22.4126 7.80581 23.158 8.35359 24.2887 8.41433C26.4443 10.5179 28.6229 12.5996 30.8245 14.6593C30.836 20.4662 30.8245 26.2729 30.7901 32.0797C30.6943 32.4553 30.5108 32.784 30.2397 33.0657C29.9232 33.3369 29.5678 33.5341 29.1733 33.6573C21.468 33.6573 13.7626 33.6573 6.0573 33.6573C5.4093 33.4438 4.91622 33.0494 4.57815 32.4741C4.53228 32.3426 4.48642 32.2111 4.44056 32.0797C4.40616 31.2034 4.39469 30.3269 4.40616 29.4502C11.4694 29.4611 18.5327 29.4502 25.5958 29.4173C25.9182 29.3286 26.159 29.1423 26.3182 28.8585C26.4125 28.4482 26.4469 28.0319 26.4214 27.6095C26.4329 23.9063 26.4214 20.2031 26.387 16.5C26.2318 16.1544 25.968 15.9243 25.5958 15.8097C18.5327 15.7769 11.4694 15.7659 4.40616 15.7769C4.39469 11.0437 4.40616 6.3107 4.44056 1.57769C4.53634 1.20209 4.7198 0.873401 4.99094 0.591633C5.30741 0.320388 5.66281 0.123177 6.0573 0Z" fill="#E1E4E6"/>
<path fill-rule="evenodd" clip-rule="evenodd" d="M22.0194 0C22.0424 0 22.0653 0 22.0882 0C24.9777 2.78286 27.8672 5.56573 30.7568 8.3486C28.6129 8.4142 26.4572 8.43616 24.2898 8.41433C23.1591 8.35359 22.4137 7.80581 22.0538 6.77091C22.0194 4.51405 22.008 2.25708 22.0194 0Z" fill="#B0B7BD"/>
<path fill-rule="evenodd" clip-rule="evenodd" d="M30.7526 8.34766C30.8213 10.44 30.8443 12.5436 30.8214 14.6584C28.6199 12.5987 26.4413 10.517 24.2856 8.41339C26.453 8.43522 28.6088 8.41326 30.7526 8.34766Z" fill="#C9D0D7"/>
<path opacity="0.999" fill-rule="evenodd" clip-rule="evenodd" d="M4.40305 15.7795C11.4663 15.7685 18.5296 15.7795 25.5927 15.8124C25.9649 15.927 26.2287 16.157 26.3839 16.5026C26.4183 20.2057 26.4298 23.9089 26.4183 27.6122C26.2704 27.9834 25.9952 28.2354 25.5927 28.3681C18.5296 28.401 11.4663 28.412 4.40305 28.401C3.16448 28.412 1.92612 28.401 0.687979 28.3681C0.378389 28.2476 0.160527 28.0395 0.0344006 27.7436C-0.0114669 23.9747 -0.0114669 20.2058 0.0344006 16.4369C0.160527 16.1411 0.378389 15.9329 0.687979 15.8124C1.92612 15.7795 3.16448 15.7685 4.40305 15.7795Z" fill="#09BCFF"/>
<path fill-rule="evenodd" clip-rule="evenodd" d="M13.0485 19.1934C15.446 19.2818 16.627 20.4651 16.5915 22.7432C16.3199 24.0983 15.4829 24.9419 14.0804 25.274C11.3489 25.4469 10.0533 24.2308 10.1934 21.6256C10.619 20.2434 11.5708 19.4327 13.0485 19.1934Z" fill="#FCFEFE"/>
<path fill-rule="evenodd" clip-rule="evenodd" d="M20.3016 19.2656C21.0631 19.2338 21.7739 19.3982 22.4343 19.7586C22.816 19.9517 22.988 20.2475 22.9503 20.6461C22.7723 20.9463 22.5086 21.0449 22.1591 20.9419C21.6066 20.4128 20.9416 20.2374 20.164 20.416C19.2389 20.7264 18.7803 21.3509 18.7881 22.2895C18.9112 23.9052 19.8056 24.5297 21.4712 24.163C21.7642 24.0358 22.0394 23.8824 22.2967 23.7028C22.8245 23.6157 23.0653 23.8238 23.0191 24.3273C22.7943 24.7481 22.4388 25.022 21.9527 25.149C19.0055 25.6635 17.5951 24.4912 17.7217 21.6321C18.0609 20.3108 18.9208 19.5219 20.3016 19.2656Z" fill="#FCFDFE"/>
<path fill-rule="evenodd" clip-rule="evenodd" d="M3.92114 19.4631C4.90749 19.4521 5.89364 19.4631 6.87944 19.496C8.59697 20.0226 9.34226 21.1511 9.11537 22.8814C8.85077 24.186 8.03662 24.964 6.67305 25.2151C5.75577 25.2589 4.83842 25.2589 3.92114 25.2151C3.79827 25.1635 3.69507 25.0868 3.61155 24.985C3.56568 23.232 3.56568 21.4791 3.61155 19.7261C3.70765 19.6228 3.81084 19.5351 3.92114 19.4631Z" fill="#FCFEFE"/>
<path fill-rule="evenodd" clip-rule="evenodd" d="M12.9606 20.3291C14.2194 20.212 15.0564 20.716 15.4717 21.841C15.5766 23.625 14.6937 24.4248 12.823 24.2404C11.6457 23.799 11.1756 22.9773 11.4126 21.7753C11.6485 21.0129 12.1645 20.5309 12.9606 20.3291Z" fill="#09BCFF"/>
<path fill-rule="evenodd" clip-rule="evenodd" d="M4.74756 20.4474C5.36715 20.4365 5.98633 20.4474 6.6051 20.4803C7.51027 20.7538 7.96887 21.3455 7.98105 22.2552C8.03175 23.2334 7.57315 23.8689 6.6051 24.1616C5.98633 24.1945 5.36715 24.2054 4.74756 24.1945C4.74756 22.9455 4.74756 21.6965 4.74756 20.4474Z" fill="#09BCFF"/>
<path fill-rule="evenodd" clip-rule="evenodd" d="M26.4171 27.6094C26.4426 28.0317 26.4082 28.448 26.3139 28.8584C26.1547 29.1422 25.9139 29.3284 25.5915 29.4171C18.5284 29.45 11.4651 29.461 4.40186 29.45C4.40186 29.0994 4.40186 28.7488 4.40186 28.3982C11.4651 28.4092 18.5284 28.3982 25.5915 28.3654C25.994 28.2326 26.2692 27.9807 26.4171 27.6094Z" fill="#C9D1D8"/>
</svg>
