<svg width="22" height="22" viewBox="0 0 22 22" fill="none" xmlns="http://www.w3.org/2000/svg">
<path d="M16.2617 20.8542H6.99417C6.70084 20.8542 6.44417 20.6708 6.34333 20.405C6.2425 20.13 6.325 19.8275 6.545 19.6442C6.765 19.4608 6.96666 19.2225 7.11333 18.9658C7.40666 18.4983 7.55334 17.9667 7.55334 17.4258C7.55334 15.785 6.21501 14.4467 4.57417 14.4467C3.89584 14.4467 3.25417 14.6758 2.71334 15.1066C2.51167 15.2716 2.2275 15.2992 1.98917 15.1892C1.75083 15.0792 1.60417 14.8317 1.60417 14.5658V10.56C1.60417 8.27752 3.45583 6.42584 5.73833 6.42584H16.2617C18.5442 6.42584 20.3958 8.27752 20.3958 10.56V11.88C20.3958 12.2559 20.0842 12.5675 19.7083 12.5675H17.8567C17.5358 12.5675 17.2425 12.6867 17.0317 12.9067L17.0225 12.9159C16.7658 13.1634 16.6467 13.5025 16.6742 13.8508C16.7292 14.4558 17.3067 14.9417 17.9667 14.9417H19.7083C20.0842 14.9417 20.3958 15.2533 20.3958 15.6292V16.72C20.3958 19.0025 18.5442 20.8542 16.2617 20.8542ZM8.41499 19.4792H16.2617C17.7833 19.4792 19.0208 18.2417 19.0208 16.72V16.3167H17.9667C16.5825 16.3167 15.4092 15.29 15.2992 13.97C15.2258 13.2183 15.5008 12.4759 16.0508 11.935C16.5275 11.4492 17.1692 11.1833 17.8567 11.1833H19.0208V10.5508C19.0208 9.02918 17.7833 7.79167 16.2617 7.79167H5.73833C4.21666 7.79167 2.97917 9.02918 2.97917 10.5508V13.3742C3.4925 13.1725 4.03333 13.0625 4.58333 13.0625C6.985 13.0625 8.9375 15.015 8.9375 17.4167C8.9375 18.1408 8.75416 18.8558 8.41499 19.4792Z" fill="#B3B3B3"/>
<path d="M2.29167 12.0634C1.91583 12.0634 1.60417 11.7517 1.60417 11.3759V7.18673C1.60417 5.8209 2.46584 4.58335 3.74 4.09752L11.0183 1.34752C11.77 1.06335 12.6042 1.16423 13.255 1.62256C13.915 2.08089 14.3 2.82339 14.3 3.62089V7.10421C14.3 7.48004 13.9883 7.79171 13.6125 7.79171C13.2367 7.79171 12.925 7.48004 12.925 7.10421V3.62089C12.925 3.27255 12.76 2.95171 12.4667 2.75004C12.1733 2.54838 11.825 2.50254 11.495 2.63087L4.21667 5.38087C3.47417 5.66504 2.97001 6.38923 2.97001 7.18673V11.3759C2.97917 11.7609 2.6675 12.0634 2.29167 12.0634Z" fill="#B3B3B3"/>
<path d="M17.9666 16.3166C16.5825 16.3166 15.4091 15.2899 15.2991 13.9699C15.2258 13.2091 15.5008 12.4666 16.0508 11.9258C16.5183 11.4491 17.16 11.1833 17.8475 11.1833H19.7541C20.6616 11.2108 21.3583 11.9258 21.3583 12.8058V14.6941C21.3583 15.5741 20.6616 16.2891 19.7816 16.3166H17.9666ZM19.7358 12.5583H17.8566C17.5358 12.5583 17.2425 12.6775 17.0316 12.8975C16.7658 13.1541 16.6375 13.5024 16.6741 13.8508C16.7291 14.4558 17.3066 14.9416 17.9666 14.9416H19.7633C19.8825 14.9416 19.9925 14.8316 19.9925 14.6941V12.8058C19.9925 12.6683 19.8825 12.5675 19.7358 12.5583Z" fill="#B3B3B3"/>
<path d="M12.8333 11.6875H6.41667C6.04083 11.6875 5.72917 11.3758 5.72917 11C5.72917 10.6242 6.04083 10.3125 6.41667 10.3125H12.8333C13.2092 10.3125 13.5208 10.6242 13.5208 11C13.5208 11.3758 13.2092 11.6875 12.8333 11.6875Z" fill="#B3B3B3"/>
<path d="M4.58333 21.7708C3.06167 21.7708 1.63167 20.9642 0.861669 19.6533C0.449169 18.9933 0.229167 18.2142 0.229167 17.4167C0.229167 16.0783 0.824999 14.8408 1.86083 14.0158C2.63083 13.4016 3.6025 13.0625 4.58333 13.0625C6.985 13.0625 8.9375 15.015 8.9375 17.4167C8.9375 18.2142 8.7175 18.9933 8.305 19.6625C8.085 20.0475 7.7825 20.3958 7.43417 20.6892C6.67333 21.3858 5.65583 21.7708 4.58333 21.7708ZM4.58333 14.4375C3.905 14.4375 3.26333 14.6666 2.7225 15.0975C2.01667 15.6566 1.60417 16.5092 1.60417 17.4167C1.60417 17.9575 1.75083 18.4892 2.035 18.9475C2.57583 19.8642 3.52917 20.3958 4.58333 20.3958C5.3075 20.3958 6.00417 20.13 6.53584 19.6533C6.77417 19.4517 6.97584 19.2133 7.1225 18.9567C7.41584 18.4892 7.5625 17.9575 7.5625 17.4167C7.5625 15.7758 6.22417 14.4375 4.58333 14.4375Z" fill="#B3B3B3"/>
<path d="M4.06072 19.0117C3.88655 19.0117 3.71238 18.9476 3.57488 18.8101L2.66739 17.9026C2.40156 17.6368 2.40156 17.1967 2.66739 16.9309C2.93323 16.665 3.37322 16.665 3.63906 16.9309L4.07905 17.3709L5.54573 16.0142C5.82073 15.7575 6.26072 15.7759 6.51739 16.0509C6.77406 16.3259 6.75573 16.7659 6.48073 17.0226L4.52822 18.8284C4.39072 18.9475 4.22572 19.0117 4.06072 19.0117Z" fill="#B3B3B3"/>
</svg>
