<svg width="12" height="16" viewBox="0 0 12 16" fill="none" xmlns="http://www.w3.org/2000/svg">
<path d="M5.84946 0C4.57598 0 3.4914 0.81344 3.09229 1.94982H1.94982C0.874372 1.94982 0 2.82419 0 3.89964V13.6487C0 14.7242 0.874372 15.5986 1.94982 15.5986H9.7491C10.8245 15.5986 11.6989 14.7242 11.6989 13.6487V3.89964C11.6989 2.82419 10.8245 1.94982 9.7491 1.94982H8.60663C8.20752 0.81344 7.12293 0 5.84946 0ZM5.84946 1.94982C6.10802 1.94982 6.35599 2.05253 6.53882 2.23536C6.72166 2.4182 6.82437 2.66617 6.82437 2.92473C6.82437 3.18329 6.72166 3.43126 6.53882 3.61409C6.35599 3.79693 6.10802 3.89964 5.84946 3.89964C5.5909 3.89964 5.34293 3.79693 5.16009 3.61409C4.97726 3.43126 4.87455 3.18329 4.87455 2.92473C4.87455 2.66617 4.97726 2.4182 5.16009 2.23536C5.34293 2.05253 5.5909 1.94982 5.84946 1.94982ZM2.19355 8.28673C2.19355 8.09281 2.27058 7.90683 2.40771 7.76971C2.54483 7.63259 2.73081 7.55555 2.92473 7.55555C3.11865 7.55555 3.30463 7.63259 3.44175 7.76971C3.57888 7.90683 3.65591 8.09281 3.65591 8.28673C3.65591 8.48066 3.57888 8.66663 3.44175 8.80376C3.30463 8.94088 3.11865 9.01792 2.92473 9.01792C2.73081 9.01792 2.54483 8.94088 2.40771 8.80376C2.27058 8.66663 2.19355 8.48066 2.19355 8.28673ZM5.362 7.79928H9.26164C9.52974 7.79928 9.7491 8.01863 9.7491 8.28673C9.7491 8.55483 9.52974 8.77419 9.26164 8.77419H5.362C5.0939 8.77419 4.87455 8.55483 4.87455 8.28673C4.87455 8.01863 5.0939 7.79928 5.362 7.79928ZM2.19355 11.2115C2.19355 11.0175 2.27058 10.8316 2.40771 10.6944C2.54483 10.5573 2.73081 10.4803 2.92473 10.4803C3.11865 10.4803 3.30463 10.5573 3.44175 10.6944C3.57888 10.8316 3.65591 11.0175 3.65591 11.2115C3.65591 11.4054 3.57888 11.5914 3.44175 11.7285C3.30463 11.8656 3.11865 11.9426 2.92473 11.9426C2.73081 11.9426 2.54483 11.8656 2.40771 11.7285C2.27058 11.5914 2.19355 11.4054 2.19355 11.2115ZM4.87455 11.2115C4.87455 10.9434 5.0939 10.724 5.362 10.724H9.26164C9.52974 10.724 9.7491 10.9434 9.7491 11.2115C9.7491 11.4796 9.52974 11.6989 9.26164 11.6989H5.362C5.0939 11.6989 4.87455 11.4796 4.87455 11.2115Z" fill="#16A34A"/>
</svg>
