<svg width="22" height="22" viewBox="0 0 22 22" fill="none" xmlns="http://www.w3.org/2000/svg">
<path d="M15.5833 19.9375H6.41667C2.37417 19.9375 1.14583 18.7092 1.14583 14.6667V7.33333C1.14583 3.29083 2.37417 2.0625 6.41667 2.0625H15.5833C19.6258 2.0625 20.8542 3.29083 20.8542 7.33333V14.6667C20.8542 18.7092 19.6258 19.9375 15.5833 19.9375ZM6.41667 3.4375C3.135 3.4375 2.52083 4.06083 2.52083 7.33333V14.6667C2.52083 17.9392 3.135 18.5625 6.41667 18.5625H15.5833C18.865 18.5625 19.4792 17.9392 19.4792 14.6667V7.33333C19.4792 4.06083 18.865 3.4375 15.5833 3.4375H6.41667Z" fill="#B3B3B3"/>
<path d="M17.4167 8.02084H12.8333C12.4575 8.02084 12.1458 7.70917 12.1458 7.33334C12.1458 6.9575 12.4575 6.64584 12.8333 6.64584H17.4167C17.7925 6.64584 18.1042 6.9575 18.1042 7.33334C18.1042 7.70917 17.7925 8.02084 17.4167 8.02084Z" fill="#B3B3B3"/>
<path d="M17.4167 11.6875H13.75C13.3742 11.6875 13.0625 11.3758 13.0625 11C13.0625 10.6242 13.3742 10.3125 13.75 10.3125H17.4167C17.7925 10.3125 18.1042 10.6242 18.1042 11C18.1042 11.3758 17.7925 11.6875 17.4167 11.6875Z" fill="#B3B3B3"/>
<path d="M17.4167 15.3542H15.5833C15.2075 15.3542 14.8958 15.0425 14.8958 14.6667C14.8958 14.2908 15.2075 13.9792 15.5833 13.9792H17.4167C17.7925 13.9792 18.1042 14.2908 18.1042 14.6667C18.1042 15.0425 17.7925 15.3542 17.4167 15.3542Z" fill="#B3B3B3"/>
<path d="M7.79167 11.0367C6.49917 11.0367 5.445 9.9825 5.445 8.69C5.445 7.3975 6.49917 6.34333 7.79167 6.34333C9.08417 6.34333 10.1383 7.3975 10.1383 8.69C10.1383 9.9825 9.08417 11.0367 7.79167 11.0367ZM7.79167 7.71833C7.26 7.71833 6.82 8.15833 6.82 8.69C6.82 9.22166 7.26 9.66166 7.79167 9.66166C8.32333 9.66166 8.76333 9.22166 8.76333 8.69C8.76333 8.15833 8.32333 7.71833 7.79167 7.71833Z" fill="#B3B3B3"/>
<path d="M11 15.6567C10.6517 15.6567 10.3492 15.3908 10.3125 15.0333C10.2117 14.0433 9.41417 13.2458 8.415 13.1542C7.99333 13.1175 7.57167 13.1175 7.15 13.1542C6.15083 13.2458 5.35333 14.0342 5.2525 15.0333C5.21583 15.4092 4.87667 15.6933 4.50083 15.6475C4.125 15.6108 3.85 15.2717 3.88667 14.8958C4.05167 13.2458 5.3625 11.935 7.02167 11.7883C7.52583 11.7425 8.03917 11.7425 8.54333 11.7883C10.1933 11.9442 11.5133 13.255 11.6783 14.8958C11.715 15.2717 11.44 15.6108 11.0642 15.6475C11.0458 15.6567 11.0183 15.6567 11 15.6567Z" fill="#B3B3B3"/>
</svg>
