<svg width="22" height="22" viewBox="0 0 22 22" fill="none" xmlns="http://www.w3.org/2000/svg">
<path d="M11 20.8542C5.56417 20.8542 1.14583 16.4358 1.14583 11C1.14583 5.56418 5.56417 1.14584 11 1.14584C16.4358 1.14584 20.8542 5.56418 20.8542 11C20.8542 11.3758 20.5425 11.6875 20.1667 11.6875C19.7908 11.6875 19.4792 11.3758 19.4792 11C19.4792 6.32501 15.675 2.52084 11 2.52084C6.325 2.52084 2.52083 6.32501 2.52083 11C2.52083 15.675 6.325 19.4792 11 19.4792C11.3758 19.4792 11.6875 19.7908 11.6875 20.1667C11.6875 20.5425 11.3758 20.8542 11 20.8542Z" fill="#B3B3B3"/>
<path d="M8.25022 19.9375H7.33355C6.95772 19.9375 6.64605 19.6258 6.64605 19.25C6.64605 18.8742 6.93938 18.5717 7.31521 18.5625C5.87605 13.6492 5.87605 8.35083 7.31521 3.4375C6.94855 3.42833 6.64605 3.12583 6.64605 2.75C6.64605 2.37417 6.95772 2.0625 7.33355 2.0625H8.25022C8.47022 2.0625 8.68105 2.1725 8.80939 2.34666C8.93772 2.53 8.97439 2.75916 8.90106 2.96999C7.17772 8.14916 7.17772 13.86 8.90106 19.0392C8.97439 19.25 8.93772 19.4792 8.80939 19.6625C8.68105 19.8458 8.47022 19.9375 8.25022 19.9375Z" fill="#B3B3B3"/>
<path d="M15.0883 11.6875C14.7125 11.6875 14.4008 11.3759 14.4008 11C14.4008 8.26836 13.9608 5.56419 13.0991 2.97002C12.9799 2.61252 13.1725 2.21834 13.53 2.09917C13.8875 1.98001 14.2816 2.17254 14.4008 2.53004C15.3083 5.2617 15.7758 8.11253 15.7758 11C15.7758 11.3759 15.4641 11.6875 15.0883 11.6875Z" fill="#B3B3B3"/>
<path d="M11 15.7758C8.43333 15.7758 5.89417 15.4092 3.4375 14.685C3.42833 15.0517 3.12583 15.3542 2.75 15.3542C2.37417 15.3542 2.0625 15.0425 2.0625 14.6667V13.75C2.0625 13.53 2.1725 13.3192 2.34666 13.1908C2.52083 13.0625 2.75917 13.0258 2.97001 13.0991C5.56417 13.9608 8.26833 14.4008 11 14.4008C11.3758 14.4008 11.6875 14.7125 11.6875 15.0883C11.6875 15.4642 11.3758 15.7758 11 15.7758Z" fill="#B3B3B3"/>
<path d="M19.2502 8.9375C19.1768 8.9375 19.1035 8.92835 19.0302 8.90085C13.851 7.17752 8.14016 7.17752 2.961 8.90085C2.6035 9.02002 2.20933 8.82749 2.09017 8.46999C1.971 8.11249 2.1635 7.71831 2.521 7.59914C7.98433 5.77498 13.9977 5.77498 19.4518 7.59914C19.8093 7.71831 20.0018 8.11249 19.8827 8.46999C19.8093 8.75415 19.5343 8.9375 19.2502 8.9375Z" fill="#B3B3B3"/>
<path d="M14.5017 20.8542C14.1534 20.8542 13.8234 20.7258 13.5851 20.4875C13.3009 20.2033 13.1725 19.7909 13.2367 19.36L13.4109 18.1225C13.4567 17.8017 13.6492 17.4167 13.8784 17.1875L17.1234 13.9425C17.5634 13.5025 17.9942 13.2734 18.4617 13.2275C19.0392 13.1725 19.5984 13.4109 20.1301 13.9425C20.6617 14.4742 20.9001 15.0334 20.8451 15.6109C20.7992 16.0692 20.5609 16.5092 20.1301 16.9492L16.885 20.1942C16.6559 20.4234 16.2801 20.6158 15.9592 20.6617L14.7217 20.8358C14.6392 20.845 14.5751 20.8542 14.5017 20.8542ZM18.6175 14.5933C18.6084 14.5933 18.5992 14.5933 18.59 14.5933C18.4617 14.6025 18.2876 14.7125 18.0951 14.9142L14.85 18.1592C14.8225 18.1867 14.7767 18.2783 14.7767 18.315L14.6117 19.4608L15.7575 19.2959C15.7942 19.2867 15.8859 19.2409 15.9134 19.2134L19.1584 15.9683C19.3509 15.7758 19.47 15.6017 19.4792 15.4734C19.4975 15.29 19.3142 15.07 19.1584 14.9142C19.0117 14.7675 18.8009 14.5933 18.6175 14.5933Z" fill="#B3B3B3"/>
<path d="M19.1768 17.6183C19.1126 17.6183 19.0484 17.6092 18.9934 17.5908C17.7834 17.2517 16.8209 16.2892 16.4818 15.0792C16.3809 14.7125 16.5918 14.3367 16.9584 14.2359C17.3251 14.135 17.7009 14.3458 17.8109 14.7125C18.0218 15.4642 18.6176 16.06 19.3693 16.2708C19.7359 16.3717 19.9468 16.7567 19.8459 17.1142C19.7543 17.4167 19.4793 17.6183 19.1768 17.6183Z" fill="#B3B3B3"/>
</svg>
