<svg width="18" height="16" viewBox="0 0 18 16" fill="none" xmlns="http://www.w3.org/2000/svg">
<path d="M7.55555 0H6.33691C5.52957 0 4.87455 0.655018 4.87455 1.46236V4.87455C4.87455 5.95 5.74892 6.82437 6.82437 6.82437H10.724C11.7995 6.82437 12.6738 5.95 12.6738 4.87455V1.46236C12.6738 0.655018 12.0188 0 11.2115 0H9.99283V2.43727C9.99283 2.70537 9.77347 2.92473 9.50537 2.92473H8.04301C7.77491 2.92473 7.55555 2.70537 7.55555 2.43727V0ZM1.94982 7.79928C0.874372 7.79928 0 8.67365 0 9.7491V13.6487C0 14.7242 0.874372 15.5986 1.94982 15.5986H6.82437C7.89982 15.5986 8.77419 14.7242 8.77419 13.6487V9.7491C8.77419 8.67365 7.89982 7.79928 6.82437 7.79928H5.60573V10.2366C5.60573 10.5047 5.38638 10.724 5.11828 10.724H3.65591C3.38781 10.724 3.16846 10.5047 3.16846 10.2366V7.79928H1.94982ZM10.724 15.5986H15.5986C16.674 15.5986 17.5484 14.7242 17.5484 13.6487V9.7491C17.5484 8.67365 16.674 7.79928 15.5986 7.79928H14.3799V10.2366C14.3799 10.5047 14.1606 10.724 13.8925 10.724H12.4301C12.162 10.724 11.9426 10.5047 11.9426 10.2366V7.79928H10.724C10.267 7.79928 9.84659 7.95465 9.51451 8.21971C9.66379 8.53655 9.7491 8.88996 9.7491 9.26164V14.1362C9.7491 14.5079 9.66379 14.8613 9.51451 15.1781C9.84659 15.4432 10.267 15.5986 10.724 15.5986Z" fill="#9333EA"/>
</svg>
