<svg width="18" height="14" viewBox="0 0 18 14" fill="none" xmlns="http://www.w3.org/2000/svg">
<path d="M8.66586 0C9.1452 0 9.53245 0.387256 9.53245 0.866587V2.59976H12.7822C13.86 2.59976 14.732 3.47176 14.732 4.54958V11.9156C14.732 12.9934 13.86 13.8654 12.7822 13.8654H4.54958C3.47176 13.8654 2.59976 12.9934 2.59976 11.9156V4.54958C2.59976 3.47176 3.47176 2.59976 4.54958 2.59976H7.79928V0.866587C7.79928 0.387256 8.18653 0 8.66586 0ZM5.63281 10.399C5.3945 10.399 5.19952 10.594 5.19952 10.8323C5.19952 11.0706 5.3945 11.2656 5.63281 11.2656H6.4994C6.73771 11.2656 6.93269 11.0706 6.93269 10.8323C6.93269 10.594 6.73771 10.399 6.4994 10.399H5.63281ZM8.23257 10.399C7.99426 10.399 7.79928 10.594 7.79928 10.8323C7.79928 11.0706 7.99426 11.2656 8.23257 11.2656H9.09916C9.33747 11.2656 9.53245 11.0706 9.53245 10.8323C9.53245 10.594 9.33747 10.399 9.09916 10.399H8.23257ZM10.8323 10.399C10.594 10.399 10.399 10.594 10.399 10.8323C10.399 11.0706 10.594 11.2656 10.8323 11.2656H11.6989C11.9372 11.2656 12.1322 11.0706 12.1322 10.8323C12.1322 10.594 11.9372 10.399 11.6989 10.399H10.8323ZM7.14934 6.93269C7.14934 6.6454 7.03521 6.36988 6.83207 6.16673C6.62892 5.96359 6.3534 5.84946 6.06611 5.84946C5.77881 5.84946 5.50329 5.96359 5.30014 6.16673C5.097 6.36988 4.98287 6.6454 4.98287 6.93269C4.98287 7.21998 5.097 7.49551 5.30014 7.69865C5.50329 7.9018 5.77881 8.01593 6.06611 8.01593C6.3534 8.01593 6.62892 7.9018 6.83207 7.69865C7.03521 7.49551 7.14934 7.21998 7.14934 6.93269ZM11.2656 8.01593C11.5529 8.01593 11.8284 7.9018 12.0316 7.69865C12.2347 7.49551 12.3489 7.21998 12.3489 6.93269C12.3489 6.6454 12.2347 6.36988 12.0316 6.16673C11.8284 5.96359 11.5529 5.84946 11.2656 5.84946C10.9783 5.84946 10.7028 5.96359 10.4997 6.16673C10.2965 6.36988 10.1824 6.6454 10.1824 6.93269C10.1824 7.21998 10.2965 7.49551 10.4997 7.69865C10.7028 7.9018 10.9783 8.01593 11.2656 8.01593ZM1.29988 6.06611H1.73317V11.2656H1.29988C0.582238 11.2656 0 10.6834 0 9.96575V7.36599C0 6.64834 0.582238 6.06611 1.29988 6.06611ZM16.0319 6.06611C16.7495 6.06611 17.3317 6.64834 17.3317 7.36599V9.96575C17.3317 10.6834 16.7495 11.2656 16.0319 11.2656H15.5986V6.06611H16.0319Z" fill="white"/>
</svg>
