<svg width="22" height="22" viewBox="0 0 22 22" fill="none" xmlns="http://www.w3.org/2000/svg">
<path d="M19.25 18.5625H10.0833C9.7075 18.5625 9.39583 18.2508 9.39583 17.875C9.39583 17.4992 9.7075 17.1875 10.0833 17.1875H19.25C19.6258 17.1875 19.9375 17.4992 19.9375 17.875C19.9375 18.2508 19.6258 18.5625 19.25 18.5625Z" fill="#B3B3B3"/>
<path d="M19.25 12.1458H10.0833C9.7075 12.1458 9.39583 11.8341 9.39583 11.4583C9.39583 11.0825 9.7075 10.7708 10.0833 10.7708H19.25C19.6258 10.7708 19.9375 11.0825 19.9375 11.4583C19.9375 11.8341 19.6258 12.1458 19.25 12.1458Z" fill="#B3B3B3"/>
<path d="M19.25 5.72919H10.0833C9.7075 5.72919 9.39583 5.41752 9.39583 5.04169C9.39583 4.66585 9.7075 4.35419 10.0833 4.35419H19.25C19.6258 4.35419 19.9375 4.66585 19.9375 5.04169C19.9375 5.41752 19.6258 5.72919 19.25 5.72919Z" fill="#B3B3B3"/>
<path d="M3.66667 6.64584C3.4925 6.64584 3.31833 6.58167 3.18083 6.44417L2.26417 5.52751C1.99833 5.26167 1.99833 4.82167 2.26417 4.55584C2.53 4.29001 2.97 4.29001 3.23583 4.55584L3.66667 4.98667L5.93083 2.72251C6.19667 2.45667 6.63667 2.45667 6.9025 2.72251C7.16833 2.98834 7.16833 3.42834 6.9025 3.69417L4.1525 6.44417C4.015 6.58167 3.84083 6.64584 3.66667 6.64584Z" fill="#B3B3B3"/>
<path d="M3.66667 13.0625C3.4925 13.0625 3.31833 12.9984 3.18083 12.8609L2.26417 11.9442C1.99833 11.6784 1.99833 11.2384 2.26417 10.9725C2.53 10.7067 2.97 10.7067 3.23583 10.9725L3.66667 11.4034L5.93083 9.13919C6.19667 8.87336 6.63667 8.87336 6.9025 9.13919C7.16833 9.40503 7.16833 9.84503 6.9025 10.1109L4.1525 12.8609C4.015 12.9984 3.84083 13.0625 3.66667 13.0625Z" fill="#B3B3B3"/>
<path d="M3.66667 19.4792C3.4925 19.4792 3.31833 19.415 3.18083 19.2775L2.26417 18.3608C1.99833 18.095 1.99833 17.655 2.26417 17.3892C2.53 17.1233 2.97 17.1233 3.23583 17.3892L3.66667 17.82L5.93083 15.5558C6.19667 15.29 6.63667 15.29 6.9025 15.5558C7.16833 15.8217 7.16833 16.2617 6.9025 16.5275L4.1525 19.2775C4.015 19.415 3.84083 19.4792 3.66667 19.4792Z" fill="#B3B3B3"/>
</svg>
