<svg width="22" height="22" viewBox="0 0 22 22" fill="none" xmlns="http://www.w3.org/2000/svg">
<path d="M11 11.6875C8.09417 11.6875 5.72917 9.32248 5.72917 6.41665C5.72917 3.51081 8.09417 1.14581 11 1.14581C13.9058 1.14581 16.2708 3.51081 16.2708 6.41665C16.2708 9.32248 13.9058 11.6875 11 11.6875ZM11 2.52081C8.855 2.52081 7.10417 4.27165 7.10417 6.41665C7.10417 8.56165 8.855 10.3125 11 10.3125C13.145 10.3125 14.8958 8.56165 14.8958 6.41665C14.8958 4.27165 13.145 2.52081 11 2.52081Z" fill="#B3B3B3"/>
<path d="M3.12598 20.8542C2.75014 20.8542 2.43848 20.5425 2.43848 20.1667C2.43848 16.2525 6.27931 13.0625 11.0001 13.0625C11.926 13.0625 12.8335 13.1817 13.7135 13.4292C14.0801 13.53 14.291 13.9058 14.1901 14.2725C14.0893 14.6392 13.7135 14.85 13.3468 14.7492C12.5951 14.5384 11.8068 14.4375 11.0001 14.4375C7.04014 14.4375 3.81348 17.0042 3.81348 20.1667C3.81348 20.5425 3.50181 20.8542 3.12598 20.8542Z" fill="#B3B3B3"/>
<path d="M16.5 20.8541C14.9783 20.8541 13.5483 20.0475 12.7783 18.7366C12.3658 18.0766 12.1458 17.2975 12.1458 16.5C12.1458 15.1616 12.7417 13.9241 13.7775 13.0991C14.5475 12.485 15.5192 12.1458 16.5 12.1458C18.9017 12.1458 20.8542 14.0983 20.8542 16.5C20.8542 17.2975 20.6342 18.0767 20.2217 18.7458C19.9925 19.1308 19.6992 19.4792 19.3508 19.7725C18.59 20.4692 17.5725 20.8541 16.5 20.8541ZM16.5 13.5208C15.8217 13.5208 15.18 13.75 14.6392 14.1808C13.9333 14.74 13.5208 15.5925 13.5208 16.5C13.5208 17.0408 13.6675 17.5725 13.9517 18.0308C14.4833 18.9291 15.4642 19.4791 16.5 19.4791C17.2242 19.4791 17.9208 19.2133 18.4525 18.7366C18.6908 18.535 18.8925 18.2966 19.0392 18.04C19.3325 17.5725 19.4792 17.0408 19.4792 16.5C19.4792 14.8591 18.1408 13.5208 16.5 13.5208Z" fill="#B3B3B3"/>
<path d="M15.9774 18.095C15.8032 18.095 15.6291 18.0309 15.4916 17.8934L14.5841 16.9859C14.3182 16.7201 14.3182 16.28 14.5841 16.0142C14.8499 15.7483 15.2899 15.7483 15.5557 16.0142L15.9957 16.4542L17.4624 15.0975C17.7374 14.8408 18.1774 14.8592 18.434 15.1342C18.6907 15.4092 18.6724 15.8492 18.3974 16.1059L16.4449 17.9117C16.3074 18.0309 16.1424 18.095 15.9774 18.095Z" fill="#B3B3B3"/>
</svg>
